<?xml version="1.0" encoding="utf-8"?>
<!-- Generator: Adobe Illustrator 16.0.2, SVG Export Plug-In . SVG Version: 6.00 Build 0)  -->
<!DOCTYPE svg PUBLIC "-//W3C//DTD SVG 1.1//EN" "http://www.w3.org/Graphics/SVG/1.1/DTD/svg11.dtd">
<svg version="1.1" id="Layer_1" xmlns="http://www.w3.org/2000/svg" xmlns:xlink="http://www.w3.org/1999/xlink" x="0px" y="0px"
	 width="1024px" height="720px" viewBox="0 0 1024 720" enable-background="new 0 0 1024 720" xml:space="preserve">
<polyline fill="#F9ED32" stroke="#00AEEF" stroke-width="9" stroke-linecap="round" stroke-miterlimit="5" stroke-opacity="0.5" stroke-dasharray="44,22,5,123,12,44" points="
	964.57,155.601 897.073,169.1 897.948,333.688 778.578,101.603 783.078,254.595 983.05,222.875 "/>
<polyline fill="none" stroke="#FF5E3C" stroke-width="15" stroke-linecap="square" stroke-linejoin="bevel" stroke-miterlimit="500" stroke-opacity="0.5" points="
	30.5,65.5 60.142,82.924 79.315,138.574 181.167,93.167 152.5,152.5 85.834,175.833 61.834,219.833 168.273,236.723 69.834,264.5 
	169.904,377.551 175.349,267.919 "/>
<path fill="#C7B570" stroke="#2D2D87" stroke-width="8" stroke-linecap="round" stroke-miterlimit="5" d="M456.091,477.991
	c0,0,40.203-95.653,115.249-30.33c75.047,65.323,190.289,187.807,206.371,104.981c16.082-82.82,301.516,2.334,107.203,55.991
	c-194.313,53.655-399.347,93.313-388.624,15.162c10.719-78.152-29.48-87.483-57.624-48.992
	C410.524,613.302,334.14,628.469,456.091,477.991z"/>
<circle fill="#EB7A79" fill-opacity="0.7" stroke="#A52D6A" stroke-width="16" stroke-miterlimit="22" stroke-dasharray="8,8,0,0,0,0" cx="657.992" cy="348.999" r="46"/>
<rect x="525.593" y="108.245" transform="matrix(0.837 0.5473 -0.5473 0.837 191.8005 -319.0544)" fill="#9FDBED" stroke="#A9D156" stroke-width="12" stroke-miterlimit="500" stroke-opacity="0.5" width="211.545" height="108.247"/>
<line fill="none" stroke="#518DD4" stroke-width="20" stroke-linecap="round" stroke-miterlimit="500" stroke-opacity="0.3" x1="122.5" y1="454" x2="274.5" y2="522"/>
<line fill="none" stroke="#518DD4" stroke-width="20" stroke-linecap="square" stroke-miterlimit="500" stroke-opacity="0.3" x1="107.5" y1="482.5" x2="259.5" y2="550.5"/>
<line fill="none" stroke="#518DD4" stroke-width="20" stroke-miterlimit="500" stroke-opacity="0.3" x1="90.5" y1="511" x2="242.5" y2="579"/>
<polyline fill="none" stroke="#FF5E3C" stroke-width="15" stroke-linecap="round" stroke-linejoin="round" stroke-miterlimit="500" stroke-opacity="0.6" points="
	201.5,66.5 231.142,83.924 250.315,139.574 352.167,94.167 323.5,153.5 256.834,176.833 232.834,220.833 339.273,237.723 
	240.834,265.5 340.904,378.551 346.349,268.919 "/>
<polyline fill="none" stroke="#FF5E3C" stroke-width="15" stroke-miterlimit="500" stroke-opacity="0.5" points="362.477,60.01 
	392.118,77.433 411.291,133.084 513.144,87.677 484.477,147.01 417.81,170.344 393.81,214.344 500.249,231.233 401.81,259.01 
	501.88,372.06 507.325,262.428 "/>
</svg>
